Coordinates
version=1
nRows=32
nColumns=22
inDegrees=yes

Units are S.I. units (second, meters, Newtons, ...)
If the header above contains a line with 'inDegrees', this indicates whether rotational values are in degrees (yes) or radians (no).

endheader
time	pelvis_tilt	pelvis_list	pelvis_rotation	pelvis_tx	pelvis_ty	pelvis_tz	hip_flexion_r	hip_adduction_r	hip_rotation_r	knee_angle_r	ankle_angle_r	subtalar_angle_r	hip_flexion_l	hip_adduction_l	hip_rotation_l	knee_angle_l	ankle_angle_l	subtalar_angle_l	lumbar_extension	lumbar_bending	lumbar_rotation
      1.77000000	      0.13829182	     -2.34675473	    -26.12726595	     -0.93149922	      0.90682656	     -0.40127484	     -2.37417701	     -1.17661291	     -0.93297856	    -10.73398840	     16.63126725	      2.89848866	      2.03866700	     -1.67111394	    -12.94798074	    -19.71312147	     17.81312569	     -4.60149270	     -9.04138983	     -0.57704693	      5.47066762
      1.78000000	      0.13871000	     -2.42701120	    -26.22068096	     -0.93171205	      0.90703844	     -0.40283719	     -1.83699416	     -1.19356206	     -0.75123421	    -11.62419313	     16.59353114	      2.89310776	      2.05920228	     -1.64477094	    -12.99452050	    -19.72580163	     17.79389895	     -4.70677963	     -9.19666175	     -0.51921976	      5.55656332
      1.79000000	      0.13054387	     -2.50069691	    -26.32317142	     -0.93195885	      0.90725094	     -0.40439648	     -1.24679152	     -1.20855494	     -0.54140552	    -12.57912963	     16.53937764	      2.88506560	      2.08979957	     -1.61778782	    -13.05136357	    -19.73386145	     17.76513361	     -4.80528848	     -9.34691959	     -0.46387048	      5.64291859
      1.80000000	      0.12152402	     -2.56993544	    -26.43264440	     -0.93219046	      0.90746451	     -0.40593254	     -0.61506562	     -1.22328549	     -0.31218082	    -13.60373735	     16.46669940	      2.87453655	      2.11857679	     -1.58883937	    -13.12622108	    -19.73875121	     17.73224230	     -4.89746906	     -9.48752258	     -0.41211119	      5.72303948
      1.81000000	      0.08021316	     -2.63223008	    -26.54072047	     -0.93249975	      0.90763096	     -0.40748087	      0.09058940	     -1.21849978	     -0.02001502	    -14.68572336	     16.39346800	      2.86605804	      2.20789093	     -1.57286379	    -13.17838182	    -19.78126153	     17.69290350	     -5.01368074	     -9.60621004	     -0.35295264	      5.80627018
      1.82000000	      0.07535559	     -2.69675543	    -26.65330004	     -0.93277765	      0.90785466	     -0.40900574	      0.79187304	     -1.22582152	      0.26445856	    -15.82545885	     16.28802382	      2.85535809	      2.24056364	     -1.54053244	    -13.26456932	    -19.78960874	     17.65617775	     -5.10234869	     -9.76234221	     -0.30628134	      5.86947053
      1.83000000	      0.05962414	     -2.76221328	    -26.76600180	     -0.93305357	      0.90806169	     -0.41050795	      1.53653728	     -1.21753770	      0.58454772	    -17.02457715	     16.16317875	      2.84694197	      2.28414492	     -1.51609751	    -13.34942265	    -19.80073091	     17.61857881	     -5.19229855	     -9.90395566	     -0.25242462	      5.92726347
      1.84000000	      0.05325854	     -2.82657507	    -26.87477901	     -0.93332309	      0.90827708	     -0.41199887	      2.29969110	     -1.20468272	      0.93074019	    -18.27124497	     16.01592910	      2.83944392	      2.31502591	     -1.48607230	    -13.43755920	    -19.80280405	     17.58326999	     -5.27388376	    -10.05700309	     -0.20026151	      5.97431490
      1.85000000	      0.04429875	     -2.89254039	    -26.97527119	     -0.93357425	      0.90848094	     -0.41347460	      3.08747572	     -1.17743015	      1.30009018	    -19.56103921	     15.84989614	      2.83262206	      2.34609463	     -1.45983685	    -13.52089012	    -19.80316434	     17.54957342	     -5.35465416	    -10.20565499	     -0.14154624	      6.01218911
      1.86000000	      0.04846877	     -2.95331217	    -27.06797097	     -0.93380534	      0.90868686	     -0.41492504	      3.88306297	     -1.14825520	      1.69277259	    -20.88631385	     15.66258386	      2.82408445	      2.36302789	     -1.42311329	    -13.60458653	    -19.79705183	     17.51768253	     -5.42879958	    -10.36240244	     -0.09384495	      6.03495844
      1.87000000	      0.05640618	     -3.01174585	    -27.14762107	     -0.93400773	      0.90887740	     -0.41635842	      4.68849949	     -1.11090283	      2.09195765	    -22.23773766	     15.45837804	      2.80950118	      2.37630058	     -1.38271709	    -13.67879446	    -19.78886035	     17.48699206	     -5.50546119	    -10.52001696	     -0.04634723	      6.04158371
      1.88000000	      0.07335688	     -3.06805380	    -27.20860679	     -0.93415575	      0.90905342	     -0.41776714	      5.48947560	     -1.07007300	      2.47450804	    -23.60248764	     15.23710617	      2.78006359	      2.38178274	     -1.33621513	    -13.73351283	    -19.78526879	     17.45932237	     -5.59059495	    -10.67763083	     -0.00145604	      6.03497580
      1.89000000	      0.08458037	     -3.11315389	    -27.25424078	     -0.93425837	      0.90918862	     -0.41912428	      6.29721530	     -1.02583952	      2.83889070	    -24.96277186	     15.02203261	      2.72491642	      2.39728315	     -1.28418262	    -13.77300081	    -19.78524516	     17.43222896	     -5.69884522	    -10.81284592	      0.03438995	      6.00682142
      1.90000000	      0.10521975	     -3.15422919	    -27.27405349	     -0.93429192	      0.90930718	     -0.42046295	      7.08309757	     -0.98690450	      3.15577076	    -26.29962687	     14.80754899	      2.62572093	      2.40307636	     -1.22220419	    -13.78477649	    -19.78401487	     17.41139531	     -5.82617929	    -10.94906579	      0.06736743	      5.95699524
      1.91000000	      0.13257604	     -3.18835168	    -27.27298609	     -0.93425788	      0.90940580	     -0.42176834	      7.84613348	     -0.95731688	      3.41949942	    -27.59685446	     14.60955965	      2.46822027	      2.40073717	     -1.14883156	    -13.77015121	    -19.77912104	     17.39633803	     -5.96995427	    -11.07983696	      0.09451812	      5.88610598
      1.92000000	      0.16187192	     -3.21563614	    -27.24907428	     -0.93414469	      0.90948227	     -0.42303567	      8.58256579	     -0.94028704	      3.61383950	    -28.83335120	     14.44006774	      2.23610044	      2.39403013	     -1.06737657	    -13.73046066	    -19.77073605	     17.39202801	     -6.13084288	    -11.19851529	      0.11839935	      5.79541451
      1.93000000	      0.17862998	     -3.25120995	    -27.19615245	     -0.93394394	      0.90952932	     -0.42426831	      9.29030041	     -0.92305273	      3.70240192	    -29.98596128	     14.31090481	      1.84086410	      2.40230234	     -1.00646740	    -13.68515138	    -19.78454366	     17.41497984	     -6.36077354	    -11.29661647	      0.16502593	      5.68099726
      1.94000000	      0.22596937	     -3.26405683	    -27.13806583	     -0.93367861	      0.90960025	     -0.42547084	      9.94421750	     -0.95212722	      3.75638170	    -31.04122500	     14.24595059	      1.48066562	      2.36539097	     -0.89379084	    -13.57951251	    -19.75232891	     17.41974604	     -6.52014525	    -11.41091081	      0.17527827	      5.56516858
      1.95000000	      0.25541197	     -3.29143428	    -27.05487009	     -0.93332098	      0.90965326	     -0.42663591	     10.56095357	     -0.98259270	      3.69201450	    -31.97395801	     14.22857594	      0.97815392	      2.34481044	     -0.81115534	    -13.47090749	    -19.74317668	     17.45668398	     -6.73384131	    -11.50077444	      0.21690301	      5.42920053
      1.96000000	      0.28888513	     -3.34742351	    -26.96228195	     -0.93286654	      0.90974611	     -0.42774492	     11.09978671	     -1.01149277	      3.52902746	    -32.74953133	     14.25920775	      0.32485682	      2.29811471	     -0.76127060	    -13.39384741	    -19.73418567	     17.50279367	     -7.00186442	    -11.59880981	      0.29294630	      5.29336835
      1.97000000	      0.34608684	     -3.38317056	    -26.85501694	     -0.93233509	      0.90986615	     -0.42884538	     11.58117820	     -1.09599477	      3.29566860	    -33.39290452	     14.36039146	     -0.14574020	      2.21678640	     -0.66307324	    -13.22300150	    -19.68812758	     17.54797756	     -7.16823511	    -11.70515586	      0.34154181	      5.14500405
      1.98000000	      0.37983158	     -3.45763414	    -26.75478193	     -0.93172534	      0.91001128	     -0.42985603	     12.00249924	     -1.15247087	      2.97246781	    -33.85778295	     14.47576179	     -0.87080737	      2.13765218	     -0.63078756	    -13.13957791	    -19.65884846	     17.59833250	     -7.45017643	    -11.79469139	      0.44398043	      5.01914440
      1.99000000	      0.43624947	     -3.53450254	    -26.64566601	     -0.93104391	      0.91020671	     -0.43083715	     12.35125847	     -1.23950256	      2.57914720	    -34.17404232	     14.62563354	     -1.47146425	      2.02074399	     -0.58336259	    -13.01591358	    -19.61025072	     17.64842150	     -7.66346810	    -11.90380175	      0.53957021	      4.88786928
      2.00000000	      0.49697823	     -3.62495230	    -26.53751651	     -0.93029471	      0.91043590	     -0.43176177	     12.63791660	     -1.33151719	      2.12536302	    -34.33671295	     14.79193502	     -2.06551376	      1.88360379	     -0.54882057	    -12.89438603	    -19.55741808	     17.69955652	     -7.87178347	    -12.01763477	      0.64906158	      4.77119786
      2.01000000	      0.56041342	     -3.72963677	    -26.42908889	     -0.92948625	      0.91070133	     -0.43261806	     12.86502759	     -1.42362479	      1.60722940	    -34.34857925	     14.95732907	     -2.61764500	      1.72371525	     -0.52845936	    -12.76731068	    -19.49103771	     17.74237651	     -8.05993656	    -12.13493632	      0.76882907	      4.66890986
      2.02000000	      0.62429173	     -3.84379249	    -26.32354607	     -0.92861511	      0.91098460	     -0.43341861	     13.04277366	     -1.51260215	      1.05231731	    -34.22297125	     15.10991941	     -3.12347330	      1.54586272	     -0.51986647	    -12.66081206	    -19.41242456	     17.78306941	     -8.22792351	    -12.25175363	      0.90133850	      4.58052984
      2.03000000	      0.67442886	     -3.95630948	    -26.20842477	     -0.92768680	      0.91125406	     -0.43413684	     13.18384844	     -1.60198571	      0.43647945	    -33.95267721	     15.24797323	     -3.41829489	      1.37652270	     -0.52301181	    -12.54888234	    -19.33385571	     17.82633715	     -8.31689737	    -12.34311995	      1.03239419	      4.46276337
      2.04000000	      0.74732652	     -4.09352765	    -26.12666083	     -0.92676714	      0.91157507	     -0.43475550	     13.26681553	     -1.66026212	     -0.15615744	    -33.57443008	     15.34357398	     -3.99241136	      1.15911526	     -0.54447399	    -12.48081148	    -19.24271530	     17.85078970	     -8.50503242	    -12.47852304	      1.16874818	      4.42271884
      2.05000000	      0.77685111	     -4.21426506	    -26.02429912	     -0.92583784	      0.91180374	     -0.43532406	     13.36684666	     -1.71212545	     -0.79911122	    -33.08724342	     15.39882780	     -4.17920369	      1.01727370	     -0.58456210	    -12.40568566	    -19.20036821	     17.86704438	     -8.55426915	    -12.56006787	      1.30647862	      4.34490186
      2.06000000	      0.81209079	     -4.34695443	    -25.93517584	     -0.92488906	      0.91204161	     -0.43581057	     13.42166595	     -1.73650623	     -1.42590084	    -32.48714366	     15.41157151	     -4.39637884	      0.84799219	     -0.63633331	    -12.33797869	    -19.13702769	     17.88460886	     -8.61299488	    -12.65509979	      1.44878325	      4.28900477
      2.07000000	      0.83482229	     -4.47223487	    -25.86619420	     -0.92395722	      0.91223817	     -0.43618782	     13.46824683	     -1.73498518	     -2.01561099	    -31.79194803	     15.40242493	     -4.57920210	      0.68984081	     -0.69531478	    -12.29365055	    -19.07227290	     17.90529678	     -8.65478962	    -12.73622026	      1.57775229	      4.24647401
      2.08000000	      0.84540185	     -4.58504446	    -25.81084057	     -0.92304195	      0.91238047	     -0.43649610	     13.51127465	     -1.71540025	     -2.56173907	    -31.00945199	     15.36842321	     -4.69356946	      0.55757827	     -0.75651209	    -12.26961934	    -19.02776260	     17.92718557	     -8.66933622	    -12.80546849	      1.69407932	      4.21266856
